<svg xmlns="http://www.w3.org/2000/svg" data-name="Layer 1" viewBox="0 0 512 512" id="football"><path d="M447.31 105.73a243.24 243.24 0 0 0-108.19-78.41 244.19 244.19 0 0 0-166.2 0h-.06a243.29 243.29 0 0 0-108.14 78.37A240.75 240.75 0 0 0 12.73 256c0 2.76 0 5.46.13 8a243.25 243.25 0 0 0 444.77 128.14 7.39 7.39 0 0 0 2.18-3.29A242.26 242.26 0 0 0 499.14 264c.08-2.55.13-5.25.13-8a240.75 240.75 0 0 0-51.96-150.27ZM433 111.86l-28.53 87.81-67.12 29.44-74.04-53.81.18-78.59 74.21-53.92a228.45 228.45 0 0 1 95.3 69.07ZM327.62 240.57 300.19 325h-88.78L184 240.57l71.82-52.18ZM256 27.73a228 228 0 0 1 64.28 9.18L256 83.61l-64.28-46.7A228 228 0 0 1 256 27.73Zm-81.7 15.06 74.19 53.91-.18 78.59-74.07 53.81-66.71-29.42L79 111.86a228.39 228.39 0 0 1 95.3-69.07ZM68 126.51l24.63 75.82-64.8 47.06A225.43 225.43 0 0 1 68 126.51ZM28 267.78l74.31-54 66.71 29.42 28.48 87.64L157 379H63.68A227.21 227.21 0 0 1 28 267.78ZM74.17 394H155l25.13 77.35A228.93 228.93 0 0 1 74.17 394Zm241.45 82.41a229.83 229.83 0 0 1-117.94.33l-28.79-88.59L209.45 340h92.72l41 48.21Zm17.38-5.48L357 394h80.78A228.89 228.89 0 0 1 333 470.93ZM448.32 379H355l-40.94-48.17 28.47-87.61 67.11-29.43 74.32 54A227.31 227.31 0 0 1 448.32 379Zm-28.93-176.67L444 126.51a225.43 225.43 0 0 1 40.15 122.88Z" fill="white"></path></svg>